<svg xmlns="http://www.w3.org/2000/svg" width="102.282" height="79.588" viewBox="0 0 102.282 79.588">
    <path id="solid_american-sign-language-interpreting" d="M46.434,36.093a13.367,13.367,0,0,0-10.346-.622c6.809,0,11.38,3.272,13.677,8.083a4.269,4.269,0,0,1-3.774,6.084,4.269,4.269,0,0,1,3.774,6.084,14.29,14.29,0,0,1-12.833,8.127c-.089,0-15.1-1.377-15.1-1.377L11.221,67.8A2.84,2.84,0,0,1,7.4,66.56L.3,52.348a2.9,2.9,0,0,1,1.11-3.775l9.281-5.285L17.26,31.43A35.364,35.364,0,0,1,30,7.981a4.259,4.259,0,0,1,5.417,6.573,28.538,28.538,0,0,0-5.2,5.685,26.722,26.722,0,0,1,11.856-4.486,4.253,4.253,0,0,1,1.066,8.438,18.059,18.059,0,0,0-7.06,2.443A22.174,22.174,0,0,1,50.164,28.41a4.27,4.27,0,0,1-3.73,7.683ZM42.082,47.2a5.685,5.685,0,1,0,0,4.885,4.24,4.24,0,0,1,3.73-2.443A4.24,4.24,0,0,1,42.082,47.2Zm59.9-5.951a2.9,2.9,0,0,1-1.11,3.775l-9.281,5.285L85.022,62.163A35.364,35.364,0,0,1,72.278,85.612a4.259,4.259,0,0,1-5.417-6.573,28.537,28.537,0,0,0,5.2-5.685A26.722,26.722,0,0,1,60.2,77.84a4.248,4.248,0,0,1-4.751-3.686A4.2,4.2,0,0,1,59.134,69.4a18.062,18.062,0,0,0,7.06-2.443,22.174,22.174,0,0,1-14.076-1.776,4.27,4.27,0,0,1,3.73-7.683,13.367,13.367,0,0,0,10.346.622c-6.809,0-11.38-3.272-13.677-8.083a4.269,4.269,0,0,1,3.774-6.084,4.269,4.269,0,0,1-3.774-6.084,14.293,14.293,0,0,1,13.1-8.127l14.831,1.377L91.062,25.79a2.84,2.84,0,0,1,3.819,1.244l7.1,14.212ZM65.351,38.27A5.687,5.687,0,0,0,60.2,41.512a4.24,4.24,0,0,1-3.73,2.443A4.241,4.241,0,0,1,60.2,46.4a5.691,5.691,0,1,0,5.151-8.127Z" transform="translate(0 -7.001)" fill="#0f82bf"/>
</svg>
