<svg id="solid_book" xmlns="http://www.w3.org/2000/svg" width="80.096" height="101.532" viewBox="0 0 80.096 101.532">
    <path id="solid_book-2" d="M80.1,71.39V4.759A4.532,4.532,0,0,0,75.806,0H17.164C7.688,0,0,8.527,0,19.037V82.495c0,10.51,7.688,19.037,17.164,19.037H75.806A4.532,4.532,0,0,0,80.1,96.773V93.6a5.012,5.012,0,0,0-1.591-3.708c-.751-3.054-.751-11.759,0-14.813A4.935,4.935,0,0,0,80.1,71.39ZM22.885,26.573a1.139,1.139,0,0,1,1.073-1.19h37.9a1.139,1.139,0,0,1,1.073,1.19v3.966a1.139,1.139,0,0,1-1.073,1.19h-37.9a1.139,1.139,0,0,1-1.073-1.19Zm0,12.692a1.139,1.139,0,0,1,1.073-1.19h37.9a1.139,1.139,0,0,1,1.073,1.19v3.966a1.139,1.139,0,0,1-1.073,1.19h-37.9a1.139,1.139,0,0,1-1.073-1.19Zm45.3,49.576H17.164c-3.165,0-5.721-2.836-5.721-6.346,0-3.49,2.575-6.346,5.721-6.346H68.189A79.156,79.156,0,0,0,68.189,88.841Z" fill="#0f82bf"/>
</svg>
