<?xml version="1.0" standalone="no"?>
<svg xmlns="http://www.w3.org/2000/svg" viewBox="0 0 163.6 29" width="163.6" height="29"><path fill="#ffffff" fill-rule="nonzero" d="M8.90 0Q13.18 0 15.50 2.18Q17.83 4.37 17.83 8.54L17.83 8.54Q17.83 12.72 15.50 14.90Q13.18 17.09 8.90 17.09L8.90 17.09Q4.63 17.09 2.32 14.92Q0 12.74 0 8.54L0 8.54Q0 4.34 2.32 2.17Q4.63 0 8.90 0L8.90 0ZM8.90 3.96Q7.20 3.96 6.31 4.99Q5.42 6.02 5.42 7.78L5.42 7.78L5.42 9.31Q5.42 11.06 6.31 12.10Q7.20 13.13 8.90 13.13L8.90 13.13Q10.61 13.13 11.51 12.10Q12.41 11.06 12.41 9.31L12.41 9.31L12.41 7.78Q12.41 6.02 11.51 4.99Q10.61 3.96 8.90 3.96L8.90 3.96ZM28.70 3.84Q31.27 3.84 32.66 5.52Q34.06 7.20 34.06 10.49L34.06 10.49Q34.06 13.75 32.66 15.42Q31.27 17.09 28.70 17.09L28.70 17.09Q26.50 17.09 25.15 15.65L25.15 15.65L25.15 21.53L20.38 21.53L20.38 4.13L24.26 4.13L24.67 5.93Q26.06 3.84 28.70 3.84L28.70 3.84ZM27.22 7.37Q26.16 7.37 25.63 8.11Q25.10 8.86 25.10 10.06L25.10 10.06L25.10 10.85Q25.10 12.05 25.63 12.80Q26.16 13.56 27.22 13.56L27.22 13.56Q29.28 13.56 29.28 11.09L29.28 11.09L29.28 9.82Q29.28 7.37 27.22 7.37L27.22 7.37ZM42.91 3.84Q46.39 3.84 48.23 5.47Q50.06 7.10 50.06 10.46L50.06 10.46L50.06 11.28L40.56 11.28Q40.56 12.65 41.17 13.34Q41.78 14.04 43.10 14.04L43.10 14.04Q44.30 14.04 44.87 13.54Q45.43 13.03 45.43 12.19L45.43 12.19L50.06 12.19Q50.06 14.50 48.31 15.79Q46.56 17.09 43.20 17.09L43.20 17.09Q39.67 17.09 37.73 15.44Q35.78 13.80 35.78 10.46L35.78 10.46Q35.78 7.20 37.68 5.52Q39.58 3.84 42.91 3.84L42.91 3.84ZM43.10 6.89Q40.85 6.89 40.58 9.02L40.58 9.02L45.24 9.02Q45.24 8.04 44.68 7.46Q44.11 6.89 43.10 6.89L43.10 6.89ZM61.10 3.84Q63.31 3.84 64.42 5.06Q65.52 6.29 65.52 8.59L65.52 8.59L65.52 16.80L60.74 16.80L60.74 9.17Q60.74 8.35 60.32 7.86Q59.90 7.37 59.14 7.37L59.14 7.37Q58.25 7.37 57.70 7.94Q57.14 8.52 57.14 9.36L57.14 9.36L57.14 16.80L52.37 16.80L52.37 4.13L56.28 4.13L56.59 6.05Q57.34 5.04 58.55 4.44Q59.76 3.84 61.10 3.84L61.10 3.84ZM75.86 0.29Q84.53 0.29 84.53 8.54L84.53 8.54Q84.53 16.80 75.86 16.80L75.86 16.80L68.71 16.80L68.71 0.29L75.86 0.29ZM74.02 4.25L74.02 12.84L75.77 12.84Q79.10 12.84 79.10 9.26L79.10 9.26L79.10 7.82Q79.10 4.25 75.77 4.25L75.77 4.25L74.02 4.25ZM93.60 3.84Q96.94 3.84 98.84 5.53Q100.75 7.22 100.75 10.46L100.75 10.46Q100.75 13.70 98.84 15.40Q96.94 17.09 93.60 17.09L93.60 17.09Q90.26 17.09 88.37 15.41Q86.47 13.73 86.47 10.46L86.47 10.46Q86.47 7.20 88.37 5.52Q90.26 3.84 93.60 3.84L93.60 3.84ZM93.60 7.08Q91.25 7.08 91.25 9.79L91.25 9.79L91.25 11.16Q91.25 13.85 93.60 13.85L93.60 13.85Q95.98 13.85 95.98 11.16L95.98 11.16L95.98 9.79Q95.98 7.08 93.60 7.08L93.60 7.08ZM109.61 3.84Q112.73 3.84 114.66 5.17Q116.59 6.50 116.59 9.24L116.59 9.24L111.96 9.24Q111.96 7.08 109.61 7.08L109.61 7.08Q107.26 7.08 107.26 9.79L107.26 9.79L107.26 11.16Q107.26 13.85 109.70 13.85L109.70 13.85Q112.15 13.85 112.15 11.64L112.15 11.64L116.59 11.64Q116.59 14.40 114.66 15.74Q112.73 17.09 109.61 17.09L109.61 17.09Q106.27 17.09 104.38 15.41Q102.48 13.73 102.48 10.46L102.48 10.46Q102.48 7.20 104.38 5.52Q106.27 3.84 109.61 3.84L109.61 3.84Z" transform="translate(0, 3.737)"></path><line x1="125.59199999999998" y1="2%" x2="125.59199999999998" y2="98%" stroke="#ffffff" stroke-linecap="round"></line><g fill="#ffffff" color="#ffffff" transform="translate(134.59199999999998 0) scale(0.5576924)"><svg width="52.0" height="52.0" x="0.0" y="0.0" viewBox="0 0 52 52"><path fill="currentColor" fill-rule="evenodd" d="M48.231 30.94l-.26 1.04c0 .173-.087.173-.087.173v-.173c.867-7.973-10.4-12.566-22.966-12.566-2.514 0-5.2.173-7.714.606-3.986.607-7.02 1.56-9.186 2.6.26 2.774 2.773 3.12 4.333 3.12h.52c2.253-.086 5.027-.52 6.413-.693.174 0 .434-.087.52-.087 1.56-.173 3.207-.346 4.767-.346 7.02 0 14.04 1.905 17.767 6.153 3.639 4.16 2.426 9.013-2.514 13.26-4.506 3.813-10.314 4.592-13.347 4.767h-.693c-3.293 0-6.153-.954-6.673-1.214-4.853-1.906-4.16-5.113-1.473-6.846 2.166-1.387 4.853-1.994 7.366-1.994 4.506 0 8.494 1.907 8.06 4.42-.26 1.734-2.34 2.687-3.987 2.687-.433 0-.867-.087-1.213-.261l-.087-.086c-.086-.173-.173-.26-.606-.433a5.446 5.446 0 0 0-1.647-.26c-1.56 0-3.206.607-3.64 1.473-.26.606.26 1.04.954 1.3.78.26 1.646.347 2.426.347.954 0 1.734-.087 2.167-.174 5.027-.867 9.446-3.206 11.267-5.286 1.473-1.733 1.126-4.16-2.947-6.067-3.467-1.733-7.887-2.08-11.18-2.08-2.167 0-3.813.174-4.42.26-.433.087-3.207.434-6.24.434h-.693c-1.04 0-1.994-.087-3.034-.261-2.773-.346-5.98-2.686-6.933-6.067a12.367 12.367 0 0 1-.173-.952v-.52c-.087-2.774-.26-6.674 1.646-9.36 3.814-5.287 11.614-7.627 19.587-7.627 11.093 0 22.62 4.68 24.18 12.827.086 0 .693 3.726-.26 7.886M23.791 3.207a22.726 22.726 0 0 1 20.02 8.493c-5.113-3.033-11.613-4.853-18.633-4.68-6.327.087-12.134 1.734-16.987 4.42 3.813-4.506 9.273-7.626 15.6-8.233m28.08 20.28c-.52-5.027-2.427-9.793-5.633-13.78A25.978 25.978 0 0 0 25.958 0c-.867 0-1.647 0-2.514.087-6.846.693-13.086 3.987-17.506 9.36C1.518 14.82-.562 21.58.13 28.427 1.344 41.947 12.698 52 25.958 52c.866 0 1.646 0 2.513-.086 6.933-.695 13.173-3.987 17.593-9.361a26.535 26.535 0 0 0 5.807-19.066"></path></svg></g></svg>
