<svg xmlns="http://www.w3.org/2000/svg" xmlns:xlink="http://www.w3.org/1999/xlink" width="383" height="596" viewBox="0 0 383 596">
    <defs>
        <filter id="Rectangle_61" x="0" y="0" width="383" height="596" filterUnits="userSpaceOnUse">
            <feOffset dy="3" input="SourceAlpha"/>
            <feGaussianBlur stdDeviation="3" result="blur"/>
            <feFlood flood-opacity="0.349"/>
            <feComposite operator="in" in2="blur"/>
            <feComposite in="SourceGraphic"/>
        </filter>
        <filter id="Rectangle_62" x="14" y="473" width="211" height="70" filterUnits="userSpaceOnUse">
            <feOffset dx="-2" dy="5" input="SourceAlpha"/>
            <feGaussianBlur stdDeviation="3" result="blur-2"/>
            <feFlood flood-opacity="0.161"/>
            <feComposite operator="in" in2="blur-2"/>
            <feComposite in="SourceGraphic"/>
        </filter>
        <filter id="Rectangle_63" x="157" y="405" width="211" height="70" filterUnits="userSpaceOnUse">
            <feOffset dx="2" dy="5" input="SourceAlpha"/>
            <feGaussianBlur stdDeviation="3" result="blur-3"/>
            <feFlood flood-opacity="0.161"/>
            <feComposite operator="in" in2="blur-3"/>
            <feComposite in="SourceGraphic"/>
        </filter>
        <filter id="Rectangle_64" x="157" y="337" width="211" height="70" filterUnits="userSpaceOnUse">
            <feOffset dx="2" dy="5" input="SourceAlpha"/>
            <feGaussianBlur stdDeviation="3" result="blur-4"/>
            <feFlood flood-opacity="0.161"/>
            <feComposite operator="in" in2="blur-4"/>
            <feComposite in="SourceGraphic"/>
        </filter>
        <filter id="Rectangle_65" x="157" y="269" width="211" height="70" filterUnits="userSpaceOnUse">
            <feOffset dx="2" dy="5" input="SourceAlpha"/>
            <feGaussianBlur stdDeviation="3" result="blur-5"/>
            <feFlood flood-opacity="0.161"/>
            <feComposite operator="in" in2="blur-5"/>
            <feComposite in="SourceGraphic"/>
        </filter>
        <filter id="Rectangle_67" x="10" y="92" width="211" height="160" filterUnits="userSpaceOnUse">
            <feOffset dx="-2" dy="5" input="SourceAlpha"/>
            <feGaussianBlur stdDeviation="3" result="blur-6"/>
            <feFlood flood-opacity="0.161"/>
            <feComposite operator="in" in2="blur-6"/>
            <feComposite in="SourceGraphic"/>
        </filter>
    </defs>
    <g id="mobileAppChat" transform="translate(-352 -2044)">
        <g id="Groupe_16" data-name="Groupe 16" transform="translate(-259 50)">
            <g transform="matrix(1, 0, 0, 1, 611, 1994)" filter="url(#Rectangle_61)">
                <rect id="Rectangle_61-2" data-name="Rectangle 61" width="365" height="578" rx="27" transform="translate(9 6)" fill="#fff"/>
            </g>
            <g transform="matrix(1, 0, 0, 1, 611, 1994)" filter="url(#Rectangle_62)">
                <rect id="Rectangle_62-2" data-name="Rectangle 62" width="193" height="52" rx="16" transform="translate(25 477)" fill="#bbdff2"/>
            </g>
            <g transform="matrix(1, 0, 0, 1, 611, 1994)" filter="url(#Rectangle_63)">
                <rect id="Rectangle_63-2" data-name="Rectangle 63" width="193" height="52" rx="16" transform="translate(164 409)" fill="#bbdff2"/>
            </g>
            <g transform="matrix(1, 0, 0, 1, 611, 1994)" filter="url(#Rectangle_64)">
                <rect id="Rectangle_64-2" data-name="Rectangle 64" width="193" height="52" rx="16" transform="translate(164 341)" fill="#bbdff2"/>
            </g>
            <g transform="matrix(1, 0, 0, 1, 611, 1994)" filter="url(#Rectangle_65)">
                <rect id="Rectangle_65-2" data-name="Rectangle 65" width="193" height="52" rx="16" transform="translate(164 273)" fill="#bbdff2"/>
            </g>
            <g transform="matrix(1, 0, 0, 1, 611, 1994)" filter="url(#Rectangle_67)">
                <rect id="Rectangle_67-2" data-name="Rectangle 67" width="193" height="142" rx="16" transform="translate(21 96)" fill="#bbdff2"/>
            </g>
        </g>
        <path id="Tracé_10" data-name="Tracé 10" d="M6,0H135a6,6,0,0,1,6,6V9a6,6,0,0,1-6,6H6A6,6,0,0,1,0,9V6A6,6,0,0,1,6,0Z" transform="translate(473 2070)" fill="#43a4d9"/>
        <path id="Tracé_11" data-name="Tracé 11" d="M18.944,30a6.107,6.107,0,0,0-3.814,1.318A8.689,8.689,0,0,0,12.9,34a8.688,8.688,0,0,0-2.232-2.684A6.107,6.107,0,0,0,6.852,30C2.946,30,0,33.2,0,37.432c0,4.577,3.675,7.709,9.239,12.45.945.805,2.016,1.718,3.129,2.691a.806.806,0,0,0,1.061,0c1.113-.973,2.184-1.886,3.129-2.692,5.563-4.741,9.238-7.872,9.238-12.45C25.8,33.2,22.85,30,18.944,30Z" transform="translate(547 2236.227)" fill="#bf4d0f"/>
        <path id="Tracé_11-2" data-name="Tracé 11" d="M18.944,30a6.107,6.107,0,0,0-3.814,1.318A8.689,8.689,0,0,0,12.9,34a8.688,8.688,0,0,0-2.232-2.684A6.107,6.107,0,0,0,6.852,30C2.946,30,0,33.2,0,37.432c0,4.577,3.675,7.709,9.239,12.45.945.805,2.016,1.718,3.129,2.691a.806.806,0,0,0,1.061,0c1.113-.973,2.184-1.886,3.129-2.692,5.563-4.741,9.238-7.872,9.238-12.45C25.8,33.2,22.85,30,18.944,30Z" transform="translate(547 2527.227)" fill="#bf4d0f"/>
    </g>
</svg>
