<svg xmlns="http://www.w3.org/2000/svg" width="147.509" height="104.119" viewBox="0 0 147.509 104.119">
<g id="Groupe_10" transform="translate(-1298.492 -769)">
<path id="solid_ad" d="M39.62,116.317h9.3l-4.648-13.386Zm48.916-4.024a6.037,6.037,0,1,0,6.037,6.037A6.045,6.045,0,0,0,88.536,112.292ZM116.706,64H12.073A12.076,12.076,0,0,0,0,76.073v72.438a12.076,12.076,0,0,0,12.073,12.073H116.706a12.076,12.076,0,0,0,12.073-12.073V76.073A12.076,12.076,0,0,0,116.706,64Zm-53.68,72.438H58.766a4.03,4.03,0,0,1-3.8-2.7l-1.854-5.345H35.429l-1.856,5.345a4.025,4.025,0,0,1-3.8,2.7H25.509a4.025,4.025,0,0,1-3.8-5.345L35.213,92.2a6.035,6.035,0,0,1,5.7-4.055h6.706a6.034,6.034,0,0,1,5.7,4.058l13.5,38.889A4.024,4.024,0,0,1,63.026,136.438Zm43.619-4.024a4.023,4.023,0,0,1-4.024,4.024H98.6a3.963,3.963,0,0,1-3.013-1.429,18.156,18.156,0,1,1-1.011-33.679V92.17A4.023,4.023,0,0,1,98.6,88.146h4.024a4.023,4.023,0,0,1,4.024,4.024Z" transform="translate(1307.103 705)" fill="#0f82bf"/>
<path id="Tracé_5" d="M4.247,0,161.5,6.609a4.8,4.8,0,0,1,4.616,4.4,3.9,3.9,0,0,1-4.243,4.029L4.62,8.434A4.8,4.8,0,0,1,0,4.033,3.9,3.9,0,0,1,4.247,0Z" transform="matrix(0.839, -0.545, 0.545, 0.839, 1298.492, 860.503)" fill="#bf4d0f"/>
<path id="Tracé_8" d="M4.247,0,161.5,6.609a4.8,4.8,0,0,1,4.616,4.4,3.9,3.9,0,0,1-4.243,4.029L4.62,8.434A4.8,4.8,0,0,1,0,4.033,3.9,3.9,0,0,1,4.247,0Z" transform="matrix(0.839, -0.545, 0.545, 0.839, 1298.492, 860.503)" fill="#bf4d0f"/>
</g>
</svg>
