<svg width="31.698" height="24.654" viewBox="0 0 31.698 24.654" xmlns="http://www.w3.org/2000/svg" xmlns:xlink="http://www.w3.org/1999/xlink" overflow="hidden"><path d="M29.056 32 2.641 32C1.18264 32.0006 0.000551917 33.1826 3.24249e-08 34.641L0 54.012C0.000551885 55.4704 1.18264 56.6525 2.641 56.653L29.056 56.653C30.5151 56.6541 31.6989 55.4721 31.7 54.013 31.7 54.0127 31.7 54.0123 31.7 54.012L31.7 34.641C31.6994 33.1819 30.5161 31.9994 29.057 32 29.0567 32 29.0563 32 29.056 32ZM9.685 37.283C11.6301 37.283 13.207 38.8599 13.207 40.805 13.207 42.7502 11.6301 44.327 9.68499 44.327 7.73985 44.327 6.163 42.7501 6.163 40.805 6.163 40.8033 6.163 40.8017 6.163 40.8 6.16741 38.8575 7.74249 37.2846 9.685 37.283ZM15.848 50.314C15.7964 50.9449 15.2463 51.4164 14.615 51.371L4.755 51.371C4.12367 51.4164 3.57357 50.9449 3.522 50.314L3.522 49.258C3.67931 47.3665 5.32874 45.9533 7.222 46.088L7.5 46.088C8.90102 46.6749 10.479 46.6749 11.88 46.088L12.155 46.088C14.0483 45.9533 15.6977 47.3665 15.855 49.258ZM28.175 47.408C28.1739 47.6506 27.9775 47.8469 27.735 47.848L19.811 47.848C19.5685 47.8469 19.3721 47.6506 19.371 47.408L19.371 46.528C19.3721 46.2854 19.5685 46.0891 19.811 46.088L27.735 46.088C27.9776 46.0891 28.1739 46.2854 28.175 46.528ZM28.175 43.886C28.1739 44.1286 27.9775 44.3249 27.735 44.326L19.811 44.326C19.5685 44.3249 19.3721 44.1286 19.371 43.886L19.371 43.006C19.3721 42.7635 19.5685 42.5671 19.811 42.566L27.735 42.566C27.9776 42.5671 28.1739 42.7635 28.175 43.006ZM28.175 40.364C28.1739 40.6065 27.9775 40.8029 27.735 40.804L19.811 40.804C19.5685 40.8029 19.3721 40.6066 19.371 40.364L19.371 39.484C19.3721 39.2415 19.5685 39.0451 19.811 39.044L27.735 39.044C27.9776 39.0451 28.1739 39.2414 28.175 39.484Z" id="solid_address-card" fill="#FFFFFF" transform="matrix(1 0 0 1 0 -32)"/></svg>