<svg width="25.683" height="26.829" viewBox="0 0 25.683 26.829" xmlns="http://www.w3.org/2000/svg" xmlns:xlink="http://www.w3.org/1999/xlink" overflow="hidden"><path d="M44 24.737 41.7 23.406C41.9329 22.15 41.9329 20.862 41.7 19.606L44 18.279C44.264 18.1273 44.3884 17.8134 44.3 17.522 43.7044 15.6163 42.6927 13.8667 41.338 12.4 41.1326 12.1777 40.8011 12.1263 40.538 12.276L38.238 13.607C37.2702 12.7735 36.1545 12.129 34.949 11.707L34.949 9.057C34.9491 8.75295 34.7379 8.48969 34.441 8.424 32.4958 7.99123 30.4792 7.99123 28.534 8.424 28.2371 8.48969 28.0259 8.75295 28.026 9.057L28.026 11.718C26.8236 12.1467 25.7091 12.7905 24.737 13.618L22.437 12.287C22.1745 12.1342 21.8409 12.1859 21.637 12.411 20.2818 13.875 19.2709 15.6232 18.678 17.528 18.5868 17.8195 18.7118 18.1351 18.978 18.285L21.278 19.616C21.0451 20.872 21.0451 22.16 21.278 23.416L18.978 24.747C18.714 24.8987 18.5896 25.2126 18.678 25.504 19.2734 27.4077 20.284 29.1554 21.637 30.621 21.8424 30.8433 22.1739 30.8947 22.437 30.745L24.737 29.414C25.7048 30.2475 26.8205 30.892 28.026 31.314L28.026 33.975C28.0259 34.279 28.2371 34.5423 28.534 34.608 30.4792 35.0408 32.4958 35.0408 34.441 34.608 34.7379 34.5423 34.9491 34.279 34.949 33.975L34.949 31.309C36.1514 30.8803 37.2659 30.2365 38.238 29.409L40.538 30.74C40.8005 30.8928 41.1341 30.8411 41.338 30.616 42.6941 29.1526 43.7061 27.4047 44.3 25.5 44.3862 25.207 44.2627 24.8928 44 24.737ZM31.483 25.837C29.0933 25.837 27.156 23.8997 27.156 21.51 27.156 19.1203 29.0933 17.183 31.483 17.183 33.8727 17.183 35.81 19.1203 35.81 21.51 35.8061 23.898 33.871 25.8327 31.483 25.836Z" id="solid_cog" fill="#FFFFFF" transform="translate(-18.644 -8.099)"/></svg>