<svg width="27.274" height="29.068" viewBox="0 0 27.274 29.068" xmlns="http://www.w3.org/2000/svg" xmlns:xlink="http://www.w3.org/1999/xlink" overflow="hidden"><path d="M18.751 5.45C18.8408 2.53396 16.5529 0.0956809 13.637-1.90735e-07 10.7211 0.0956809 8.43319 2.53396 8.523 5.45 8.43319 8.36604 10.7211 10.8043 13.637 10.9 16.5529 10.8043 18.8408 8.36604 18.751 5.45ZM12.443 13.688C9.283 11.626 4.163 11.059 1.587 10.903 0.751819 10.8626 0.0419901 11.5068 0.00155219 12.342-4.4217e-05 12.375-0.000561886 12.408 1.24507e-08 12.441L0 25.09C-0.0110424 25.895 0.607933 26.5688 1.411 26.626 3.737 26.756 8.442 27.232 11.694 28.978 12.0565 29.1703 12.5063 29.0324 12.6986 28.6699 12.7583 28.5573 12.788 28.4313 12.785 28.304L12.785 14.339C12.7892 14.0779 12.6604 13.8326 12.443 13.688ZM25.686 10.9C23.11 11.056 17.986 11.623 14.831 13.685 14.6136 13.8336 14.4854 14.0816 14.49 14.345L14.49 28.3C14.4801 28.7113 14.8055 29.0528 15.2169 29.0627 15.3447 29.0658 15.4711 29.0359 15.584 28.976 18.836 27.232 23.538 26.756 25.863 26.626 26.6658 26.5683 27.2845 25.8948 27.274 25.09L27.274 12.441C27.2893 11.6044 26.6236 10.9138 25.787 10.8985 25.7533 10.8979 25.7197 10.8984 25.686 10.9Z" id="solid_book-reader" fill="#FFFFFF"/></svg>