<svg width="20.585" height="27.446" viewBox="0 0 20.585 27.446" xmlns="http://www.w3.org/2000/svg" xmlns:xlink="http://www.w3.org/1999/xlink" overflow="hidden"><path d="M5.2 19.431C4.734 18.965 4.977 19.097 3.853 18.796 3.35544 18.6517 2.89193 18.4089 2.49 18.082L0.062 24.045C-0.116747 24.4839 0.0941121 24.9845 0.532966 25.1633 0.646151 25.2094 0.767879 25.2308 0.89 25.226L3.714 25.118 5.657 27.17C5.98409 27.5129 6.52719 27.5257 6.87006 27.1986 6.95812 27.1146 7.02729 27.0128 7.073 26.9L9.863 20.059C8.3469 20.9354 6.43023 20.6772 5.2 19.431ZM20.514 24.045 18.082 18.082C17.6802 18.4091 17.2167 18.6519 16.719 18.796 15.59 19.096 15.837 18.966 15.372 19.431 14.1431 20.6767 12.2283 20.9364 10.712 20.063L13.502 26.904C13.6811 27.3427 14.182 27.5531 14.6207 27.374 14.7335 27.328 14.8352 27.2584 14.919 27.17L16.862 25.118 19.686 25.226C20.1594 25.2467 20.56 24.8797 20.5806 24.4063 20.586 24.2827 20.5647 24.1595 20.518 24.045ZM14.1 18.218C14.919 17.384 15.013 17.456 16.179 17.138 16.9266 16.9284 17.506 16.3368 17.7 15.585 17.7927 14.6067 18.2988 13.7145 19.091 13.133 19.6376 12.5732 19.8499 11.7674 19.65 11.011 19.2493 10.1095 19.2493 9.08047 19.65 8.179 19.8499 7.42258 19.6376 6.61677 19.091 6.057 18.2977 5.47426 17.7915 4.58008 17.7 3.6 17.5051 2.84698 16.9235 2.25504 16.174 2.047 15.2047 1.94804 14.3261 1.43322 13.766 0.636001 13.2256 0.0822093 12.4278-0.135534 11.681 0.0670006 10.7988 0.474364 9.78225 0.474364 8.9 0.0670006 8.15324-0.135755 7.35525 0.0820188 6.815 0.636001 6.25564 1.43518 5.37641 1.95162 4.406 2.051 3.65716 2.25802 3.07529 2.84827 2.879 3.6 2.78778 4.58016 2.2815 5.47443 1.488 6.057 0.941386 6.61677 0.729443 7.42276 0.930002 8.179 1.33055 9.08016 1.33055 10.1088 0.930002 11.01 0.730319 11.7664 0.942568 12.5721 1.489 13.132 2.28117 13.7135 2.78728 14.6057 2.88 15.584 3.07487 16.337 3.65652 16.929 4.406 17.137 5.606 17.464 5.695 17.413 6.485 18.217 7.1881 18.9383 8.30035 19.0685 9.151 18.529 9.84681 18.0873 10.7352 18.0873 11.431 18.529 12.2821 19.0704 13.3962 18.9405 14.1 18.218ZM5.233 9.425C5.28215 6.63198 7.58619 4.40763 10.3792 4.45678 13.1722 4.50594 15.3966 6.80998 15.3474 9.603 15.2989 12.3614 13.0488 14.5721 10.29 14.572 7.47345 14.5484 5.20933 12.246 5.23296 9.4294 5.23297 9.42793 5.23299 9.42647 5.233 9.425Z" id="solid_award" fill="#FFFFFF" transform="translate(0.002 0.008)"/></svg>