<?xml version="1.0" encoding="utf-8"?>
<!-- Generator: Adobe Illustrator 23.0.3, SVG Export Plug-In . SVG Version: 6.00 Build 0)  -->
<svg version="1.1" id="Layer_1" xmlns="http://www.w3.org/2000/svg" xmlns:xlink="http://www.w3.org/1999/xlink" x="0px" y="0px"
	 viewBox="0 0 83.4 83.4" style="enable-background:new 0 0 83.4 83.4;" xml:space="preserve">
<style type="text/css">
	.st0{fill:#0F82BF;}
	.st1{fill:#B92400;}
</style>
	<path id="solid_poo" class="st0" d="M73.6,60.1c5.2-3.9,6.2-11.2,2.3-16.4c-2.2-2.9-5.7-4.7-9.4-4.7h-2.3c4.3-3.7,4.8-10.3,1.1-14.6
	c-2-2.3-4.9-3.6-7.9-3.6h-1c0.6-1.7,0.9-3.4,1-5.2C57.3,7,50.3,0,41.7,0c-0.8,0-1.6,0.1-2.5,0.2c4.2,5.8,2.9,13.9-2.9,18.2
	c-2.2,1.6-4.9,2.5-7.6,2.5h-2.6c-5.7,0-10.4,4.6-10.4,10.3c0,3,1.3,5.9,3.6,7.9h-2.3c-6.5,0-11.7,5.2-11.7,11.7
	c0,3.7,1.7,7.2,4.7,9.4c-6.4,1-10.7,7-9.7,13.4c0.9,5.7,5.8,9.9,11.6,9.9h60c6.5,0,11.7-5.2,11.7-11.7C83.4,66,79.2,61,73.6,60.1z
	 M31.3,41.7c2.9,0,5.2,2.3,5.2,5.2s-2.3,5.2-5.2,5.2s-5.2-2.3-5.2-5.2C26.1,44,28.4,41.7,31.3,41.7C31.3,41.7,31.3,41.7,31.3,41.7z
	 M57.3,64.4c-1.7,4.5-9.5,8.6-15.6,8.6s-13.9-4.1-15.6-8.6c-0.3-0.7,0.1-1.5,0.8-1.7c0.2-0.1,0.3-0.1,0.5-0.1H56
	c0.7,0,1.3,0.6,1.4,1.3C57.4,64,57.3,64.2,57.3,64.4z M52.1,52.1c-2.9,0-5.2-2.3-5.2-5.2s2.3-5.2,5.2-5.2s5.2,2.3,5.2,5.2
	C57.4,49.8,55,52.1,52.1,52.1C52.1,52.1,52.1,52.1,52.1,52.1z"/>
	<path class="st1" d="M75.1,22.6L3.6,82.9c-0.9,0.8-2.3,0.7-3.1-0.3h0c-0.8-0.9-0.7-2.3,0.3-3.1l71.5-60.3c0.9-0.8,2.3-0.7,3.1,0.3v0
	C76.1,20.5,76,21.8,75.1,22.6z"/>
</svg>
