<svg xmlns="http://www.w3.org/2000/svg" width="2336" height="438.086" viewBox="0 0 2336 438.086">
    <path id="wave_1_" d="M0,87.617,48.667,124.17C97.333,160.175,194.667,234.1,292,219.043c58.984-9.126,117.968-49.925,177.078-90.586,38.223-26.293,76.573-52.578,114.922-70,97.333-43.4,194.667-29.708,292-14.648s194.667,28.749,292,58.457c97.333,29.16,194.667,72.969,292,65.713,97.333-7.8,194.667-65.3,292-36.553s194.667,146.485,292,138.682c97.333-7.256,194.667-138.682,243.333-204.394L2336,0V438.086H0Z" fill="#fff"/>
</svg>
