<svg id="Composant_44_1"  xmlns="http://www.w3.org/2000/svg" width="16.062" height="14.054" viewBox="0 0 16.062 14.054">
    <path id="solid_comment"  d="M8.031,32C3.6,32,0,34.921,0,38.525a5.791,5.791,0,0,0,1.788,4.1A7.981,7.981,0,0,1,.069,45.63a.249.249,0,0,0-.047.273.246.246,0,0,0,.229.151,7.174,7.174,0,0,0,4.411-1.612,9.567,9.567,0,0,0,3.369.609c4.436,0,8.031-2.921,8.031-6.525S12.467,32,8.031,32Z" transform="translate(0 -32)" fill="#4cd137"/>
    <g id="tick" transform="translate(5 -64.087)">
        <g id="Groupe_38"  transform="translate(0 67.997)">
            <path id="Tracé_25"  d="M6.318,68.125a.265.265,0,0,0-.453,0L2.023,73.344.547,71.338a.265.265,0,0,0-.453,0,.552.552,0,0,0,0,.616l1.7,2.314a.265.265,0,0,0,.453,0l4.068-5.526A.552.552,0,0,0,6.318,68.125Z" transform="translate(0 -67.997)" fill="#fff"/>
        </g>
    </g>
</svg>
