<svg id="Composant_42_1"  xmlns="http://www.w3.org/2000/svg" width="16.062" height="15.5" viewBox="0 0 16.062 15.5">
    <path id="solid_comment"  d="M8.031,32C3.6,32,0,34.921,0,38.525a5.791,5.791,0,0,0,1.788,4.1A7.981,7.981,0,0,1,.069,45.63a.249.249,0,0,0-.047.273.246.246,0,0,0,.229.151,7.174,7.174,0,0,0,4.411-1.612,9.567,9.567,0,0,0,3.369.609c4.436,0,8.031-2.921,8.031-6.525S12.467,32,8.031,32Z" transform="translate(0 -30.554)" fill="#bf4d0f"/>
    <text id="x" transform="translate(10.531 11)" fill="#fff" font-size="10" font-family="SegoeUI, Segoe UI"><tspan x="-4.59" y="0">x</tspan></text>
</svg>
